<svg height="512pt" viewBox="0 -28 512 512" width="512pt" xmlns="http://www.w3.org/2000/svg"><path d="m496.820312 108.945312h-481.640624c-8.382813 0-15.179688-6.796874-15.179688-15.179687s6.796875-15.175781 15.179688-15.175781h481.640624c8.382813 0 15.179688 6.792968 15.179688 15.175781s-6.796875 15.179687-15.179688 15.179687zm0 0" fill="#cff9ff"/><path d="m496.820312 78.589844h-240.824218v30.355468h240.824218c8.382813 0 15.179688-6.796874 15.179688-15.179687s-6.796875-15.175781-15.179688-15.175781zm0 0" fill="#b5efff"/><path d="m138.625 456.503906c-8.382812 0-15.179688-6.796875-15.179688-15.179687v-385.5c0-8.382813 6.796876-15.179688 15.179688-15.179688s15.175781 6.796875 15.175781 15.179688v385.5c0 8.382812-6.792969 15.179687-15.175781 15.179687zm0 0" fill="#ffa426"/><path d="m373.375 456.503906c-8.382812 0-15.175781-6.796875-15.175781-15.179687v-385.5c0-8.382813 6.792969-15.179688 15.175781-15.179688s15.179688 6.796875 15.179688 15.179688v385.5c0 8.382812-6.796876 15.179687-15.179688 15.179687zm0 0" fill="#fe8205"/><path d="m64.308594 0c-22.597656 0-40.980469 18.382812-40.980469 40.980469v105.574219c0 22.59375 18.382813 40.980468 40.980469 40.980468s40.980468-18.382812 40.980468-40.980468v-105.574219c0-22.597657-18.382812-40.980469-40.980468-40.980469zm0 0" fill="#2864f0"/><path d="m447.691406 0c-22.597656 0-40.980468 18.382812-40.980468 40.980469v105.574219c0 22.59375 18.382812 40.980468 40.980468 40.980468s40.976563-18.382812 40.976563-40.980468v-105.574219c0-22.597657-18.382813-40.980469-40.976563-40.980469zm0 0" fill="#0053bf"/><path d="m457.855469 456.503906h-403.710938c-8.382812 0-15.179687-6.796875-15.179687-15.179687 0-8.378907 6.796875-15.175781 15.179687-15.175781h403.710938c8.382812 0 15.179687 6.796874 15.179687 15.175781 0 8.382812-6.796875 15.179687-15.179687 15.179687zm0 0" fill="#2864f0"/><path d="m457.855469 426.148438h-201.859375v30.355468h201.859375c8.382812 0 15.179687-6.796875 15.179687-15.179687 0-8.378907-6.796875-15.175781-15.179687-15.175781zm0 0" fill="#0053bf"/></svg>